<svg width="65px" height="65px" viewBox="0 0 100 100" fill="none" xmlns="http://www.w3.org/2000/svg">
    <!-- 
      FINAL ADJUSTMENT:
      1. INTRINSIC SIZE: 65px x 65px (Header)
      2. INTERNAL DRAWING: MAXIMIZED (Fills the viewbox 0-100)
    -->

    <!-- Paper Sheet (Base) - Isometric - Full Bleed -->
    <!-- X: 20 to 80 (Width 60) -->
    <!-- Y: 5 to 95 (Height 90) -->
    <path d="M20 20 L75 5 L85 90 L30 98 L20 20 Z" fill="#F7D8D5" stroke="#212529" stroke-width="1.5" stroke-linejoin="round"/>
    
    <!-- Paper Header (Blue) -->
    <path d="M20 20 L75 5 L77 20 L22 35 L20 20 Z" fill="#D9E7FB" stroke="#212529" stroke-width="1.5" stroke-linejoin="round"/>
    
    <!-- Paper Side Thickness -->
    <path d="M85 90 L87 22 L77 20 L75 5" stroke="#212529" stroke-width="1.5" stroke-linejoin="round"/>
    <path d="M85 90 L87 22" fill="#F2C8C3"/>
    
    <!-- Grade Lines -->
    <path d="M28 45 L68 35" stroke="#212529" stroke-width="1.5" stroke-linecap="round"/>
    <path d="M28 60 L68 50" stroke="#212529" stroke-width="1.5" stroke-linecap="round"/>
    <path d="M28 75 L50 70" stroke="#212529" stroke-width="1.5" stroke-linecap="round"/>
    
    <!-- Grade Badge (Circle A+) - Maximized -->
    <circle cx="75" cy="80" r="12" fill="#D9E7FB" stroke="#212529" stroke-width="1.5"/>
    <path d="M70 83 L72 78 L75 83 M71 80.5 H74" stroke="#212529" stroke-width="1.2" stroke-linecap="round"/>
    <path d="M78 78 V83 M76 80.5 H80" stroke="#212529" stroke-width="1.2" stroke-linecap="round"/>
</svg>
